<svg viewBox="0 0 64 64" xmlns="http://www.w3.org/2000/svg"><filter id="filtertz1ZTDCfahwoYqF6sJmxTmbtGDskPoAateJX" x="0" y="0" width="100%" height="100%"><feTile in="SourceGraphic" x="16" y="16" width="98" height="98"></feTile><feTile></feTile></filter><path id="path" d="M  58,57 M 53,50 L 50,53 M 33,4 L 4,33 M 42,31 L 31,42 M 4,2 L 4,2 22,58 57,56
          M 31.6, 0.4000000000000057
          a 4,4 0 1,0 8,0
          a 4,4 0 1,0 -8,0
        
          M -1.3999999999999986, 1.6000000000000014
          a 2,2 0 1,0 4,0
          a 2,2 0 1,0 -4,0
         M 32,1 L 1,32 M 31,3 L 31,3 M 13,57 L 57,13 M 47,41 L 47,41 M 10,22 L 10,22 M 0,1 L 1,0 M 17,50 L 50,17
          M 15.600000000000001, 40.6
          a 5,5 0 1,0 10,0
          a 5,5 0 1,0 -10,0
         M 37,17 L 17,37 M 34,8 L 8,34 M 4,58 L 4,58 30,9 55,54 M 30,9 L 9,30
          M -2.3999999999999986, 3.6000000000000014
          a 5,5 0 1,0 10,0
          a 5,5 0 1,0 -10,0
         M 11,53 L 53,11 M 5,54 L 5,54 M 36,13 L 13,36
          M 37.6, 7.600000000000001
          a 3,3 0 1,0 6,0
          a 3,3 0 1,0 -6,0
         M 36,15 L 36,15 M 31,5 L 5,31 M 2,3 L 2,3
          M -3.3999999999999986, 5.600000000000001
          a 7,7 0 1,0 14,0
          a 7,7 0 1,0 -14,0
         M 56,55 L 56,55 M 31,4 L 4,31 M 8,1 L 8,1 22,58 56,55 M 22,58 L 58,22 M 56,55 L 55,56 M 26,29 L 26,29
          M 49.6, 27.6
          a 5,5 0 1,0 10,0
          a 5,5 0 1,0 -10,0
        
          M 18.6, 54.6
          a 6,6 0 1,0 12,0
          a 6,6 0 1,0 -12,0
         M 36,14 L 14,36 M 22,57 L 57,22 M 4,3 L 3,4 M 21,4 L 4,21 M 35,11 L 35,11 M 12,22 L 22,12 M 23,50 L 50,23 M 6,46 L 6,46 M 51,48 L 51,48 M 7,10 L 10,7 M 6,39 L 39,6 M 3,25 L 3,25" style="filter: url(&quot;#filtertz1ZTDCfahwoYqF6sJmxTmbtGDskPoAateJX&quot;);"></path></svg>