<?xml version="1.0" encoding="utf-8"?>
<!-- Generator: Adobe Illustrator 25.4.1, SVG Export Plug-In . SVG Version: 6.00 Build 0)  -->
<svg version="1.1" id="Layer_1" xmlns="http://www.w3.org/2000/svg" xmlns:xlink="http://www.w3.org/1999/xlink" x="0px" y="0px"
	 viewBox="0 0 64 64" style="enable-background:new 0 0 64 64;" xml:space="preserve">
<style type="text/css">
	.st0{fill:url(#path_00000133509698020990384660000001248747187306033295_);}
</style>
<linearGradient id="path_00000115475821171658711350000009792406915384998562_" gradientUnits="userSpaceOnUse" x1="5.2768" y1="48.638" x2="51.9714" y2="6.3461">
	<stop  offset="0" style="stop-color:#AD00A3"/>
	<stop  offset="7.953477e-02" style="stop-color:#B912A7"/>
	<stop  offset="0.2753" style="stop-color:#D239B1"/>
	<stop  offset="0.4686" style="stop-color:#E658B8"/>
	<stop  offset="0.6566" style="stop-color:#F46EBE"/>
	<stop  offset="0.8366" style="stop-color:#FC7CC1"/>
	<stop  offset="1" style="stop-color:#FF80C2"/>
</linearGradient>
<path id="path" style="fill:url(#path_00000115475821171658711350000009792406915384998562_);" d="M53,50l-3,3 M33,4L4,33 M42,31
	L31,42 M4,2L4,2l18,56l35-2 M31.6,0.4c0,2.2,1.8,4,4,4c2.2,0,4-1.8,4-4c0,0,0,0,0,0c0-2.2-1.8-4-4-4C33.4-3.6,31.6-1.8,31.6,0.4
	L31.6,0.4 M-1.4,1.6c0,1.1,0.9,2,2,2s2-0.9,2-2c0,0,0,0,0,0c0-1.1-0.9-2-2-2S-1.4,0.5-1.4,1.6 M32,1L1,32 M31,3L31,3 M13,57l44-44
	 M47,41L47,41 M10,22L10,22 M0,1l1-1 M17,50l33-33 M15.6,40.6c0,2.8,2.2,5,5,5s5-2.2,5-5s-2.2-5-5-5S15.6,37.8,15.6,40.6 M37,17
	L17,37 M34,8L8,34 M4,58L4,58L30,9l25,45 M30,9L9,30 M-2.4,3.6c0,2.8,2.2,5,5,5s5-2.2,5-5s-2.2-5-5-5S-2.4,0.8-2.4,3.6 M11,53l42-42
	 M5,54L5,54 M36,13L13,36 M37.6,7.6c0,1.7,1.3,3,3,3s3-1.3,3-3s-1.3-3-3-3S37.6,5.9,37.6,7.6 M36,15L36,15 M31,5L5,31 M2,3L2,3
	 M-3.4,5.6c0,3.9,3.1,7,7,7s7-3.1,7-7s-3.1-7-7-7S-3.4,1.7-3.4,5.6 M56,55L56,55 M31,4L4,31 M8,1L8,1l14,57l34-3 M22,58l36-36
	 M56,55l-1,1 M26,29L26,29 M49.6,27.6c0,2.8,2.2,5,5,5s5-2.2,5-5s-2.2-5-5-5S49.6,24.8,49.6,27.6 M18.6,54.6c0,3.3,2.7,6,6,6
	s6-2.7,6-6s-2.7-6-6-6S18.6,51.3,18.6,54.6 M36,14L14,36 M22,57l35-35 M4,3L3,4 M21,4L4,21 M35,11L35,11 M12,22l10-10 M23,50l27-27
	 M6,46L6,46 M51,48L51,48 M7,10l3-3 M6,39L39,6 M3,25L3,25"/>
</svg>
